<svg width="109" height="207" viewBox="0 0 109 207" fill="none" xmlns="http://www.w3.org/2000/svg">
<path d="M106.645 85.0246C106.264 85.3006 105.881 85.578 105.5 85.854C104.706 86.426 103.914 86.9993 103.122 87.5726C101.594 88.678 100.061 89.778 98.5409 90.8966C97.0209 92.0153 95.4969 93.126 93.9676 94.2313C93.2023 94.7846 92.4383 95.3366 91.6729 95.8886C91.5743 95.9593 91.4743 96.0286 91.3756 96.098C90.6703 96.1913 89.9556 96.4353 89.2596 96.5806C88.5023 96.738 87.7396 96.8753 86.9743 96.994C85.4409 97.2286 83.9089 97.3926 82.3583 97.4553C79.4729 97.5713 76.6169 97.3313 73.7583 96.9953C79.6156 93.3633 86.0489 90.7113 92.6383 88.6793C97.2676 87.2526 101.984 86.182 106.674 85.0006C106.666 85.0086 106.656 85.018 106.645 85.0246ZM94.4503 98.714C95.1623 98.7953 95.869 98.89 96.5716 99.0206C96.8103 99.0646 97.4089 99.0806 97.5783 99.2886C97.8329 99.5993 97.2463 99.9486 97.013 100.081C95.7703 100.786 94.3316 101.274 92.9983 101.782C91.6316 102.303 90.249 102.778 88.8463 103.195C86.9316 103.765 84.9876 104.238 83.0276 104.639C82.977 104.555 82.8969 104.491 82.7823 104.483C81.3169 104.374 79.8369 104.389 78.3676 104.318C76.9303 104.249 75.4956 104.15 74.0609 104.026C71.2236 103.779 68.4023 103.387 65.5676 103.117C66.5796 102.207 67.6196 101.33 68.6956 100.494C70.1836 99.3366 71.7356 98.278 73.3209 97.2766C76.2676 97.926 79.3316 98.086 82.3396 97.99C83.9156 97.9393 85.5049 97.8246 87.0663 97.6166C87.8343 97.514 88.5983 97.3913 89.3583 97.2486C89.5463 97.214 89.7396 97.1806 89.9343 97.1473C89.7023 97.334 89.4769 97.526 89.2689 97.7353C89.1116 97.8953 89.1983 98.1913 89.3996 98.206C89.4169 98.3113 89.4783 98.4046 89.6143 98.41C91.2356 98.4726 92.8383 98.526 94.4503 98.714ZM71.245 106.221C68.169 106.441 65.0756 106.581 61.9903 106.653C63.0209 105.523 64.105 104.443 65.233 103.413C65.2596 103.439 65.285 103.467 65.333 103.477C68.209 104.087 71.1583 104.391 74.0836 104.659C75.549 104.794 77.017 104.909 78.485 105.007C79.121 105.05 79.7623 105.098 80.4023 105.135C77.3703 105.653 74.3063 106.002 71.245 106.221ZM61.3129 106.007C61.6583 103.646 62.2263 101.365 63.1716 99.166C64.1436 96.9033 65.4503 94.7873 67.005 92.8793C67.593 92.1566 68.2289 91.4793 68.8849 90.8233C68.3543 92.2126 67.9143 93.6313 67.585 95.0833C67.3836 95.974 67.2209 96.8726 67.1009 97.7766C67.0436 98.214 66.9943 98.6513 66.9543 99.09C66.913 99.546 66.8036 100.034 66.8569 100.489C66.8663 100.566 66.9023 100.617 66.9463 100.658C64.9463 102.302 63.0543 104.078 61.3129 106.007ZM79.2343 84.0086C79.901 83.73 80.5769 83.474 81.2583 83.2353C80.6129 84.062 80.0996 85.0606 79.5809 85.966C79.0236 86.9366 78.5116 87.9313 78.0343 88.9433C77.1689 90.774 76.381 92.6713 75.797 94.6166C72.885 96.2566 70.1023 98.122 67.4983 100.209C67.5276 99.8633 67.5023 99.5046 67.5276 99.1606C67.5623 98.7206 67.6036 98.2833 67.6543 97.846C67.7569 96.9713 67.8916 96.1006 68.0596 95.2366C68.3876 93.5526 68.8503 91.8966 69.4303 90.282C72.2636 87.6046 75.637 85.5126 79.2343 84.0086ZM87.057 81.6606C86.8076 83.3193 86.2156 84.914 85.2809 86.314C84.2343 87.8793 82.8369 89.15 81.3489 90.2846C81.1836 90.4126 81.3436 90.658 81.529 90.5886C82.053 90.398 82.5463 90.1473 83.0129 89.8566C85.8476 88.494 88.7583 87.258 91.7849 86.3966C94.9583 85.4953 98.237 84.9593 101.533 84.802C102.458 84.7566 103.386 84.746 104.312 84.7633C100.808 85.4073 97.3343 86.2606 93.921 87.242C89.2783 88.5793 84.713 90.2126 80.3356 92.266C78.9716 92.906 77.6356 93.6033 76.317 94.33C76.9716 92.6006 77.6489 90.8873 78.4676 89.2206C78.9556 88.2273 79.4796 87.25 80.0263 86.286C80.5836 85.3006 81.281 84.374 81.8076 83.3766C81.873 83.2526 81.8236 83.1446 81.733 83.0806C83.4756 82.4953 85.253 82.0206 87.057 81.6606ZM53.9343 49.0713C53.9183 49.002 53.8796 48.9406 53.821 48.8886C54.193 43.606 54.5996 38.31 55.8036 33.138C56.9209 28.3353 58.7369 23.6633 61.5103 19.5646C62.9329 17.4646 64.609 15.6233 66.4823 13.93C67.081 13.6473 67.6956 13.414 68.325 13.2526C62.925 21.7806 58.7276 31.1393 56.0356 40.8686C55.6583 42.2326 55.293 43.6046 54.993 44.9886C54.7036 46.314 54.257 47.7526 54.3076 49.114C54.309 49.1246 54.3209 49.1233 54.3249 49.1313C54.1849 49.118 54.0503 49.1006 53.9343 49.0713ZM53.497 48.0726C53.0076 45.8006 52.6223 43.5326 52.5623 41.1806C52.4876 38.238 52.8169 35.2766 53.5009 32.4153C54.8516 26.746 57.7223 21.134 61.9956 17.1086C62.485 16.6486 63.0129 16.1926 63.5716 15.758C61.2503 18.3406 59.4076 21.3966 58.0116 24.5233C55.8423 29.382 54.6956 34.6366 54.0729 39.9033C53.7529 42.6126 53.5796 45.3433 53.497 48.0726ZM51.6876 50.062C50.4543 50.3193 49.2009 50.4753 47.9436 50.534C45.4236 50.65 42.865 50.374 40.4276 49.722C38.037 49.082 35.729 48.074 33.6503 46.7286C32.593 46.0446 31.5903 45.2726 30.6583 44.426C30.3996 44.1913 30.1236 43.9366 29.857 43.6646C34.441 47.7113 40.6156 49.878 46.7236 49.754C47.7343 49.734 48.7463 49.6366 49.7463 49.4793C50.2863 49.394 50.9756 49.3286 51.5836 49.15C51.8209 49.3033 52.0596 49.4553 52.293 49.6126C52.409 49.6913 52.5276 49.766 52.645 49.842C52.3276 49.922 52.0076 49.9966 51.6876 50.062ZM28.5623 41.8246C28.461 41.5633 28.3836 41.294 28.361 41.01C28.317 40.466 28.481 39.9993 28.7663 39.6153C34.2263 43.6873 40.6343 46.5926 47.2676 48.114C48.1263 48.3113 48.9929 48.4766 49.8623 48.6286C49.0596 48.762 48.2503 48.854 47.437 48.9033C45.7263 49.0046 44.013 48.9366 42.317 48.6886C38.9143 48.1913 35.605 46.9913 32.701 45.146C31.2063 44.198 29.8156 43.0766 28.5623 41.8246ZM31.0223 38.446C31.421 38.4086 31.8076 38.4393 32.185 38.5113C34.785 41.038 37.729 43.3846 40.889 45.158C41.7716 45.654 42.6876 46.094 43.6276 46.4766C43.4836 46.434 43.3383 46.398 43.1956 46.354C39.9529 45.3446 36.837 43.9953 33.865 42.3553C32.1996 41.4366 30.5916 40.4126 29.033 39.322C29.553 38.822 30.297 38.514 31.0223 38.446ZM35.6223 39.89C35.8143 39.97 35.9783 39.7886 35.9556 39.622C36.497 40.1486 37.053 40.6633 37.633 41.1486C39.793 42.9593 42.1849 44.478 44.7036 45.7446C45.1143 46.026 45.533 46.2913 45.9596 46.5393C45.937 46.5326 45.9129 46.5286 45.8889 46.5233C44.2049 46.0526 42.5863 45.3593 41.0543 44.5206C38.105 42.906 35.5943 40.7353 32.9423 38.714C33.865 39.0233 34.745 39.5193 35.6223 39.89ZM32.5756 33.858C29.3116 28.8673 27.8156 22.4366 29.057 16.5526C28.8356 20.4553 29.5663 24.4646 30.877 28.0686C32.6556 32.9593 35.6983 37.3313 39.3223 41.038C36.7103 39.026 34.397 36.6446 32.5756 33.858ZM29.6996 14.2686C29.9063 13.67 30.1343 13.0793 30.405 12.5006C30.861 11.53 31.5023 10.4993 32.3383 9.73531C31.1116 11.978 30.833 14.586 30.9036 17.13C30.981 19.9393 31.4343 22.7473 32.1703 25.4566C33.601 30.73 36.2236 35.6993 39.701 39.9073C40.765 41.194 41.9223 42.4673 43.1769 43.622C42.3169 42.9073 41.4796 42.1673 40.665 41.4006C38.7943 39.6366 37.0756 37.71 35.5716 35.622C32.489 31.342 30.2983 26.3286 29.6556 21.07C29.377 18.794 29.4183 16.5246 29.6996 14.2686ZM34.4103 8.64064C34.9356 8.54464 35.453 8.58596 35.9343 8.72196C35.181 11.4566 34.9076 14.3713 34.8636 17.1953C34.817 20.17 35.089 23.1486 35.6903 26.062C36.777 31.334 38.9436 36.3646 41.981 40.806C42.5063 41.5753 43.069 42.318 43.6463 43.0473C42.709 42.186 41.797 41.298 40.9463 40.334C39.189 38.3446 37.6356 36.1713 36.3263 33.862C33.7103 29.2486 32.0143 24.0766 31.4823 18.7953C31.1583 15.578 31.2556 12.134 32.9276 9.26997C33.3756 8.96864 33.865 8.74064 34.4103 8.64064ZM36.8876 5.6513C37.7796 4.78063 38.773 3.99664 39.9143 3.4793C41.2543 2.86997 42.6676 2.73264 44.1209 2.87931C44.8849 2.95664 45.6396 3.1073 46.3836 3.29264C46.8823 3.41797 47.377 3.59397 47.8756 3.7353C47.4116 4.1793 46.9516 4.62731 46.5036 5.08064C45.2956 6.29931 43.9743 7.58196 43.0089 9.03263C42.8849 9.01129 42.761 8.9833 42.637 8.9673C41.0823 8.76597 39.5436 9.21529 38.5743 10.2966C38.3343 9.13529 37.181 8.27797 36.065 7.96197C35.6903 7.85664 35.321 7.8113 34.9556 7.80596C35.5916 7.08196 36.1956 6.3273 36.8876 5.6513ZM50.0303 3.06331C50.7143 2.49531 51.4463 1.9113 52.2516 1.50996C52.197 1.56196 52.1436 1.61397 52.0929 1.66064C51.7463 1.97931 51.409 2.30863 51.0783 2.64463C50.373 3.36463 49.7196 4.14197 49.1023 4.9393C47.9023 6.4833 46.8116 8.17797 46.0729 9.99397C46.0676 10.006 46.0756 10.014 46.0729 10.0246C45.3236 9.68997 44.5583 9.39264 43.7796 9.19531C44.669 8.28864 45.4849 7.2953 46.3783 6.39796C47.5423 5.22996 48.761 4.11664 50.0303 3.06331ZM53.1623 1.44329C53.2423 1.32729 53.3263 1.21397 53.4049 1.09663C53.5329 1.07263 53.6596 1.04596 53.7903 1.03529C53.5783 1.36463 53.4703 1.80998 53.3423 2.14998C53.1316 2.71798 52.945 3.29264 52.781 3.87664C52.4703 4.97931 52.2449 6.10196 52.0903 7.23663C51.9369 8.37129 51.869 9.5153 51.8836 10.6593C51.897 11.7166 51.921 12.8726 52.197 13.9086C51.3703 13.2006 50.4889 12.558 49.5729 11.9646C49.6476 9.94997 49.9063 8.01797 50.6036 6.10597C50.9556 5.13797 51.3876 4.20064 51.9036 3.30997C52.209 2.78597 52.5596 2.29398 52.909 1.80198C53.021 1.69264 53.1076 1.57396 53.1623 1.44329ZM54.2676 1.46598C55.0983 2.66998 55.7756 3.98598 56.237 5.37398C56.473 6.08064 56.6476 6.80597 56.7636 7.54197C56.8863 8.31263 56.881 9.07796 56.9463 9.85129C56.9476 9.85796 56.9503 9.86196 56.9503 9.86863C56.785 10.0166 56.6116 10.1513 56.449 10.302C55.7236 10.966 55.0116 11.6513 54.349 12.378C53.7663 13.018 53.2463 13.686 52.7289 14.3673C52.6743 14.318 52.617 14.2726 52.561 14.222C52.629 14.1753 52.685 14.1073 52.6823 14.0193C52.6583 12.8846 52.4409 11.758 52.4236 10.6166C52.4063 9.4793 52.4783 8.33931 52.633 7.21264C52.7876 6.09931 53.0356 4.99663 53.3623 3.92063C53.5289 3.37129 53.7156 2.82731 53.9223 2.28997C54.0223 2.02731 54.1703 1.74864 54.2676 1.46598ZM57.9636 2.83264C58.5596 3.44064 59.0583 4.14197 59.4996 4.8673C59.9063 5.53664 60.2169 6.28998 60.6489 6.94598C60.6129 6.97131 60.5743 6.99798 60.5383 7.02331C59.5249 7.72598 58.5623 8.4953 57.6223 9.29264C57.641 7.9153 57.2849 6.45663 56.8596 5.18463C56.4569 3.98329 55.8823 2.85929 55.1556 1.83129C55.9129 2.49929 56.5903 3.25264 57.1703 4.08331C57.5316 4.60464 57.829 5.16863 58.105 5.73929C58.3943 6.33396 58.5676 6.97796 58.857 7.56996C59.0143 7.89529 59.5543 7.77397 59.4876 7.38997C59.3756 6.74197 59.0423 6.10064 58.7409 5.52064C58.4249 4.90731 58.0409 4.34063 57.6356 3.7833C56.9023 2.77797 56.017 1.8873 55.0303 1.1313C56.1463 1.37663 57.1796 2.02997 57.9636 2.83264ZM63.2796 2.30997C64.7263 2.0793 66.2183 2.1513 67.6263 2.5593C70.3129 3.33663 72.5716 5.13663 74.4863 7.1193C75.6063 8.27796 76.6383 9.5193 77.6649 10.7606C77.7636 10.8806 77.8849 10.9326 78.0063 10.9406C77.6943 11.3926 77.3943 11.8513 77.1023 12.3166C76.461 13.3366 75.869 14.3873 75.3263 15.4646C75.0023 16.1046 74.6796 16.766 74.3956 17.4393C74.3476 16.9126 74.2889 16.3873 74.2009 15.8713C73.9529 14.4326 73.3343 13.0473 71.945 12.398C71.4636 12.174 70.9596 12.05 70.445 12.002C70.4676 11.3233 70.1383 10.538 69.9116 9.94063C69.6196 9.17796 69.2369 8.44997 68.7849 7.76997C67.9596 6.52597 66.745 5.09531 65.1383 5.00331C63.8236 4.92731 62.609 5.60863 61.5116 6.34863C61.2423 5.68196 60.8316 5.03531 60.4703 4.43131C60.2743 4.10331 60.0636 3.78198 59.8436 3.46864C60.9556 2.97798 62.0503 2.50597 63.2796 2.30997ZM80.3769 9.0513C80.4983 8.90597 80.6516 8.68996 80.8276 8.46329C80.7996 8.62196 80.7769 8.78196 80.7476 8.94063C80.6716 9.35663 80.5889 9.77129 80.5036 10.1846C80.3129 11.0993 80.0996 12.0086 79.8583 12.9126C79.3876 14.69 78.8223 16.4433 78.1716 18.1633C77.5289 19.854 76.8023 21.514 75.9943 23.1326C75.2236 24.6753 74.3609 26.17 73.5796 27.706C74.1303 25.4193 74.4503 23.078 74.4956 20.7286C74.5063 20.0553 74.501 19.3766 74.4743 18.6966C74.8276 17.966 75.1503 17.2193 75.5169 16.494C75.9689 15.602 76.4449 14.7206 76.9609 13.8633C77.9756 12.178 79.1236 10.5686 80.3769 9.0513ZM81.1036 10.6206C81.205 10.1486 81.301 9.67663 81.3903 9.20196C81.469 8.77796 81.6276 8.30331 81.5223 7.87664C81.5129 7.83798 81.489 7.8033 81.4636 7.77264C81.821 7.47397 82.2063 7.32997 82.5703 7.62864C82.6049 7.65664 82.6316 7.69664 82.6649 7.72731C82.6289 7.78331 82.6103 7.85263 82.6249 7.93796C83.6729 13.8633 81.9103 19.9646 77.5783 24.2006C76.7596 25.0006 75.8543 25.714 74.929 26.3926C75.525 25.4433 76.065 24.454 76.565 23.466C77.397 21.826 78.1356 20.1353 78.789 18.418C79.4436 16.6993 80.009 14.946 80.485 13.17C80.7103 12.3246 80.917 11.4753 81.1036 10.6206ZM83.401 8.66863C83.653 9.09263 83.8649 9.54463 84.0596 9.9353C84.8769 11.5806 85.4009 13.3606 85.6196 15.186C85.8689 17.266 85.7076 19.3953 85.1423 21.414C82.7823 21.99 80.5383 22.942 78.4769 24.198C79.1796 23.454 79.8209 22.6513 80.3863 21.826C82.1156 19.302 83.1903 16.358 83.509 13.3153C83.6716 11.774 83.637 10.2033 83.401 8.66863ZM77.6236 36.41C73.7316 40.806 68.8756 44.2873 63.513 46.666C62.005 47.3353 60.4543 47.9153 58.8769 48.3993C58.1983 48.6073 57.5143 48.7886 56.829 48.9633C57.2276 48.766 57.6183 48.5473 58.0089 48.33C58.0329 48.3206 58.0583 48.31 58.0809 48.3006C59.3489 47.7553 60.597 47.1633 61.8196 46.5233C64.2756 45.2406 66.5796 43.7526 68.8183 42.1246C73.277 38.8793 77.325 35.0086 80.6476 30.6046C81.5876 29.3566 82.4703 28.0646 83.2956 26.738C83.697 26.0926 84.0849 25.4406 84.4583 24.7793C84.8529 24.0846 85.2996 23.382 85.5423 22.6193C85.5636 22.5486 85.5583 22.4793 85.5343 22.4206C85.6116 22.4033 85.6849 22.378 85.7623 22.3606C84.001 27.5233 81.2423 32.322 77.6236 36.41ZM79.7823 37.5873C80.9503 37.074 82.169 36.702 83.4103 36.438C83.149 36.6433 82.8916 36.854 82.6276 37.05C82.0129 37.51 81.3903 37.958 80.7569 38.3926C79.4729 39.278 78.1609 40.1393 76.8116 40.9233C74.4609 42.2913 72.0183 43.4526 69.5236 44.522C69.9249 44.2713 70.3303 44.0273 70.7223 43.7633C71.577 43.1886 72.4009 42.57 73.2089 41.9313C73.3436 42.0046 73.5063 42.0086 73.6369 41.8793C75.4396 40.0953 77.4516 38.6113 79.7823 37.5873ZM84.9383 36.174C85.3503 36.1193 85.765 36.0646 86.181 36.0366C86.0916 36.2006 85.9929 36.3593 85.8996 36.5233C79.3916 42.766 71.0636 46.9206 62.1756 48.442C61.6943 48.5246 61.2116 48.5926 60.7276 48.6606C61.3836 48.4433 62.0343 48.2153 62.6769 47.966C63.9449 47.474 65.181 46.91 66.393 46.2953C68.461 45.662 70.4849 44.842 72.4409 43.95C75.2569 42.6646 78.0049 41.174 80.5903 39.4713C81.3316 38.9846 82.061 38.4806 82.7783 37.962C83.485 37.45 84.2716 36.9473 84.8689 36.3086C84.9063 36.2686 84.9263 36.2206 84.9383 36.174ZM81.797 42.0793C81.0556 42.5833 80.3876 43.1993 79.661 43.7273C78.913 44.27 78.1436 44.7806 77.353 45.2553C75.7463 46.2206 74.0396 47.0326 72.289 47.7033C68.7836 49.0446 65.0516 49.798 61.2983 49.89C60.2303 49.9166 59.1636 49.8873 58.0996 49.806C57.7596 49.7793 57.4143 49.7313 57.0676 49.6806C57.3943 49.6046 57.7209 49.5366 58.0449 49.4513C59.1756 49.374 60.305 49.2553 61.4276 49.086C63.653 48.7513 65.8503 48.25 68.0063 47.598C72.4063 46.2673 76.5849 44.2793 80.4329 41.7646C81.8583 40.8313 83.2236 39.8073 84.5329 38.718C83.7089 39.9073 82.7903 41.0273 81.797 42.0793ZM77.3036 45.9446C73.0783 48.8633 68.0649 50.5073 62.9449 50.778C60.3823 50.914 57.8423 50.674 55.3303 50.2233C55.3276 50.2086 55.3276 50.194 55.3249 50.1793C55.3183 50.1473 55.3036 50.1193 55.2903 50.0913C55.3623 50.0553 55.4369 50.022 55.5063 49.9806C55.6063 49.97 55.7129 49.9486 55.8143 49.9353C56.4676 50.0793 57.169 50.1166 57.8076 50.178C58.753 50.2686 59.7023 50.3153 60.653 50.3193C62.5463 50.3286 64.4396 50.174 66.3076 49.8633C70.0876 49.2353 73.7343 47.9393 77.077 46.0673C77.1836 46.0073 77.2876 45.9406 77.3956 45.8793C77.3649 45.9006 77.3356 45.9233 77.3036 45.9446ZM72.4049 14.2366C72.0236 24.6353 67.921 34.7726 61.077 42.594C59.6543 44.2193 58.1196 45.714 56.5063 47.13C58.7423 43.522 60.7383 39.7766 62.569 35.942C64.8156 31.2406 66.8143 26.3806 68.4796 21.4406C69.4023 18.7006 70.1969 15.914 70.9156 13.1126C71.5289 13.258 72.0663 13.57 72.473 14.0633C72.437 14.1073 72.4076 14.1606 72.4049 14.2366ZM73.6463 29.542C76.6009 26.1393 80.5783 23.7246 84.9249 22.582C84.6156 23.0486 84.3609 23.5486 84.0876 24.038C83.7463 24.6486 83.3929 25.2526 83.0263 25.8486C82.3049 27.0246 81.5396 28.174 80.7289 29.2926C79.1449 31.4846 77.4103 33.578 75.5476 35.5406C71.745 39.5446 67.3223 42.8606 62.4916 45.526C62.2116 45.6806 61.9236 45.8233 61.6396 45.9726C64.2036 44.0273 66.4743 41.6833 68.3423 39.122C70.425 36.2686 72.0063 33.058 73.0476 29.6806C73.2396 29.758 73.4729 29.742 73.6463 29.542ZM68.781 37.3526C65.989 41.7473 62.0503 45.41 57.5009 47.9433C56.8249 48.218 56.145 48.4833 55.4783 48.774C55.5943 48.5873 55.709 48.402 55.8263 48.218C59.6916 45.286 62.9836 41.5233 65.605 37.4686C68.449 33.0686 70.5823 28.1993 71.817 23.1073C72.461 20.4473 72.8476 17.7313 72.993 14.9993C73.4836 16.3166 73.513 17.87 73.5756 19.2473C73.8623 25.582 72.181 31.9966 68.781 37.3526ZM66.481 8.24997C65.9943 7.23531 65.3303 6.2313 64.2289 6.1313C64.2476 6.10197 64.269 6.07263 64.2876 6.04197C64.9063 5.90197 65.5303 5.94597 66.1009 6.2953C66.7196 6.67264 67.2103 7.24997 67.6423 7.82197C68.1543 8.49664 68.573 9.23396 68.8983 10.0153C69.0516 10.386 69.1876 10.7646 69.2943 11.1513C69.3729 11.43 69.4143 11.722 69.4996 11.9993C68.953 12.0406 68.405 12.158 67.8623 12.3206C67.5543 10.9166 67.1023 9.54731 66.481 8.24997ZM58.8809 16.726C59.2436 15.4273 59.697 14.1566 60.2276 12.9166C60.7703 11.6486 61.3983 10.4153 62.1143 9.2353C62.6356 8.37264 63.2476 7.56997 63.8196 6.7433C64.0503 6.71263 64.2836 6.72331 64.509 6.80198C64.9836 6.96864 65.2863 7.40064 65.521 7.82197C66.3356 9.27797 66.8796 10.8993 67.2263 12.5326C65.9583 13.006 64.7569 13.714 63.7876 14.3726C61.6129 15.854 59.773 17.802 58.209 19.9193C58.3996 18.8486 58.5849 17.782 58.8809 16.726ZM54.5903 16.2646C54.6543 16.2646 54.717 16.2446 54.753 16.1713C56.2183 13.17 58.3556 10.458 60.9663 8.37263C61.5716 7.8873 62.2223 7.3753 62.9316 7.0393C62.4849 7.64863 62.065 8.28196 61.6783 8.90329C60.9383 10.0913 60.2783 11.3313 59.709 12.61C59.125 13.9193 58.641 15.2726 58.253 16.6513C57.933 17.7953 57.6289 18.99 57.4783 20.1793C56.6436 18.7833 55.6716 17.474 54.5903 16.2646ZM53.1316 14.75C55.0343 12.722 57.0996 10.8126 59.301 9.11264C58.4463 9.92998 57.637 10.7966 56.9196 11.738C55.9116 13.0593 55.0889 14.5126 54.4169 16.0326C54.4116 16.0446 54.4196 16.0526 54.4169 16.0633C54.0049 15.61 53.577 15.1713 53.1316 14.75ZM51.6823 43.142C51.2063 41.6393 50.7276 40.134 50.3423 38.6086C49.8743 36.7526 49.6743 34.8366 49.525 32.9326C49.2236 29.0846 49.3836 25.1766 50.0383 21.3726C50.4143 19.1833 50.9556 17.0313 51.6769 14.93C51.6969 14.874 51.7009 14.8206 51.6956 14.7726C53.8089 16.6006 55.6116 18.794 56.9663 21.2353C57.017 21.326 57.0863 21.3846 57.1623 21.4273C55.521 23.9286 54.2103 26.6473 53.2836 29.4913C51.8556 33.8753 51.313 38.5446 51.6823 43.142ZM46.4196 10.174C46.429 10.1633 46.4423 10.162 46.4503 10.1486C47.3903 8.46064 48.3663 6.81264 49.5663 5.29264C50.1103 4.60597 50.6969 3.96063 51.3049 3.33129C50.8343 4.15263 50.413 5.00196 50.0796 5.88863C49.4103 7.66863 48.9703 9.63129 48.9516 11.5526C48.1543 11.0713 47.3036 10.5913 46.4196 10.174ZM47.3503 11.778C48.7569 12.5286 50.0796 13.4326 51.3076 14.45C51.189 14.4526 51.077 14.5126 51.0303 14.6633C49.8623 18.4366 49.1343 22.3353 48.9383 26.2833C48.8423 28.2153 48.8876 30.1553 49.0543 32.082C49.2276 34.0873 49.5983 36.046 49.9783 38.0193C50.3436 39.9153 50.7836 41.77 51.4623 43.5726C49.8103 40.21 48.1689 36.8486 46.7876 33.3526C44.9156 28.61 43.5383 23.6926 43.0116 18.6126C42.8636 17.1766 42.7876 15.7326 42.8049 14.29C42.8196 12.874 43.009 11.4726 43.061 10.062C43.5823 10.1766 44.0969 10.3366 44.5916 10.5233C45.5369 10.8806 46.4596 11.302 47.3503 11.778ZM39.4903 29.342C38.3356 24.7033 38.0463 19.8806 38.3516 15.1193C38.4223 14.0233 38.4103 12.7993 38.7996 11.758C39.1756 10.7526 40.069 10.154 41.1063 9.97263C41.6743 9.87396 42.245 9.90331 42.8076 10.0033C42.505 11.1886 42.4343 12.446 42.377 13.6633C42.3183 14.8913 42.325 16.1246 42.3863 17.3553C42.517 19.9766 42.9249 22.5726 43.5263 25.126C44.7036 30.1326 46.5876 34.9406 48.7396 39.6006C49.8249 41.9486 50.9503 44.29 52.1289 46.5966C52.2143 47.0486 52.2863 47.502 52.3916 47.9513C52.397 47.9806 52.4063 48.01 52.4143 48.0406C52.0929 47.8366 51.7823 47.622 51.4703 47.406C51.4423 47.334 51.3916 47.2726 51.2863 47.2566C51.2729 47.2553 51.2583 47.254 51.2423 47.2513C45.2783 43.01 41.2556 36.4326 39.4903 29.342ZM37.9476 26.9433C38.773 31.534 40.3876 35.9646 42.9263 39.8873C44.4596 42.258 46.3223 44.41 48.4796 46.2046C47.8756 45.9633 47.2783 45.7033 46.6836 45.434C46.3116 45.0486 45.9383 44.6633 45.581 44.2646C44.7236 43.3073 43.9129 42.3086 43.1476 41.2753C41.5849 39.1646 40.2276 36.9046 39.1116 34.5246C36.737 29.4593 35.4663 23.914 35.3676 18.3193C35.3116 15.1073 35.7556 11.9966 36.3183 8.85129C37.1823 9.21529 37.8716 9.93531 38.1316 10.9113C37.957 11.2126 37.8063 11.5353 37.7116 11.906C37.421 13.0526 37.3943 14.286 37.329 15.4633C37.2556 16.7526 37.2276 18.0446 37.245 19.3353C37.2796 21.886 37.497 24.434 37.9476 26.9433ZM54.8836 48.9246C54.9356 48.8873 54.9849 48.8473 55.0369 48.81C54.9903 48.886 54.9463 48.9633 54.8996 49.0393C54.8236 49.0766 54.7476 49.1153 54.6716 49.154C54.6463 49.1526 54.6223 49.1526 54.5996 49.1513C54.5529 49.1486 54.5036 49.1433 54.4543 49.1406C54.4569 49.1366 54.4636 49.138 54.4663 49.134C54.9583 48.0353 55.1143 46.75 55.4036 45.5833C55.7183 44.3166 56.0356 43.05 56.3809 41.79C57.0529 39.3406 57.8103 36.914 58.653 34.518C60.321 29.7766 62.3436 25.174 64.709 20.7406C66.0623 18.2033 67.5196 15.7233 69.0783 13.306C69.1236 13.2366 69.1343 13.1646 69.129 13.0966C69.2663 13.0753 69.3996 13.042 69.5383 13.0273C69.7596 13.0046 69.9769 13.0033 70.1916 13.0126C68.9436 17.9713 67.4343 22.9046 65.5916 27.6753C63.7276 32.5006 61.5423 37.166 59.1009 41.7246C57.9729 43.83 56.7703 45.898 55.5463 47.95C55.2596 48.1913 54.9769 48.4366 54.6863 48.674C54.5276 48.8046 54.7156 49.042 54.8836 48.9246ZM41.9383 79.6806C41.9343 79.542 41.865 79.406 41.6956 79.33C41.6476 79.3073 41.5983 79.29 41.5516 79.2686C40.2863 77.9713 38.9743 76.7206 37.637 75.498C37.6383 75.4953 37.641 75.494 37.6423 75.49C38.405 73.9233 38.785 72.2113 38.8436 70.4793C39.5876 71.666 40.2476 72.9073 40.7943 74.202C41.6263 76.17 42.2023 78.2313 42.553 80.3366C42.3463 80.1193 42.1463 79.8953 41.9383 79.6806ZM32.4716 76.9046C29.3196 76.398 26.1423 76.078 22.9756 75.6726C26.749 75.4646 30.537 74.7873 34.161 73.8246C34.1916 73.8153 34.2143 73.8006 34.2396 73.7846C35.981 75.274 37.6836 76.806 39.313 78.418C37.089 77.702 34.7383 77.2686 32.4716 76.9046ZM13.3596 73.8606C11.833 73.4206 10.333 72.8806 8.89696 72.198C8.24763 71.89 7.43296 71.566 7.01429 70.946C6.53429 70.2366 6.90629 69.4713 7.46495 68.942C7.76629 68.6566 8.10762 68.426 8.46629 68.2206C8.46762 68.3046 8.51028 68.39 8.61562 68.4126C14.301 69.5713 20.2703 69.106 25.7903 67.3686C25.805 67.3633 25.8116 67.3553 25.825 67.3486C28.561 69.198 31.1836 71.2033 33.7076 73.3286C31.581 73.8966 29.4423 74.3726 27.2636 74.7033C25.1036 75.0313 22.9276 75.2113 20.7503 75.3673C18.2596 75.0073 15.7743 74.5553 13.3596 73.8606ZM9.68895 67.6086C10.5596 67.2046 11.4463 66.8353 12.3476 66.5046C14.1996 65.8273 16.113 65.3113 18.049 64.934C18.0543 64.9353 18.0596 64.938 18.065 64.9393C18.1036 64.9473 18.137 64.9326 18.1663 64.9086C18.1676 64.9086 18.169 64.9086 18.1703 64.9086C18.5423 64.8366 18.4623 64.2646 18.0836 64.322C17.9983 64.3353 17.9143 64.354 17.829 64.3673C17.329 63.9513 16.7303 63.6166 16.1823 63.298C15.4516 62.8726 14.7143 62.462 13.9796 62.0446C12.4783 61.1913 10.9756 60.3366 9.47296 59.4833C7.97029 58.63 6.46895 57.7753 4.96629 56.922C4.59162 56.71 4.21829 56.49 3.84229 56.2686C10.9863 58.7526 17.8116 62.1486 24.165 66.2473C24.513 66.4713 24.8543 66.7046 25.1996 66.934C19.8743 68.566 14.2783 68.8606 8.77695 68.054C9.07695 67.8966 9.38362 67.75 9.68895 67.6086ZM1.35829 54.8953C2.80763 55.0673 4.25429 55.2513 5.68762 55.538C7.48762 55.8993 9.27296 56.402 11.0116 56.99C12.725 57.5686 14.3996 58.2606 16.029 59.046C17.6783 59.8433 19.217 60.858 20.8863 61.6073C21.0983 61.702 21.233 61.414 21.0783 61.274C21.0023 61.2033 20.9156 61.1473 20.837 61.0806C20.8756 61.0593 20.9063 61.018 20.8996 60.966C20.8436 60.4806 21.0783 59.914 21.4356 59.586C21.9543 59.1113 22.7116 59.1233 23.3636 59.2353C24.477 59.426 25.5796 59.858 26.6276 60.27C27.1836 60.4886 27.729 60.7313 28.2676 60.9886C28.381 62.1593 28.5156 63.326 28.597 64.4993C28.6396 65.1113 28.6716 65.7246 28.6903 66.338C28.701 66.662 28.709 66.986 28.713 67.31C28.7156 67.5593 28.777 67.9806 28.693 68.25C24.177 65.0313 19.3796 62.214 14.3436 59.8766C10.421 58.0553 6.32896 56.5566 2.17829 55.3233C1.90762 55.1753 1.63296 55.0326 1.35829 54.8953ZM32.509 63.554C34.725 65.21 36.637 67.226 38.1996 69.4886C38.277 71.4193 37.921 73.338 37.261 75.154C37.0436 74.958 36.8343 74.7526 36.6143 74.558C34.2396 72.454 31.7596 70.4726 29.1903 68.6153C29.209 68.5593 29.2103 68.4966 29.1676 68.418C29.0076 68.1273 29.0823 67.6273 29.0783 67.306C29.0756 67.0166 29.069 66.726 29.061 66.438C29.0423 65.7993 29.0116 65.1606 28.9676 64.5233C28.8903 63.3953 28.769 62.262 28.5743 61.1473C29.953 61.8313 31.2743 62.6313 32.509 63.554ZM108.321 84.358C108.308 84.242 108.218 84.138 108.058 84.1593C107.87 84.186 107.682 84.222 107.496 84.2486C107.452 84.2233 107.401 84.206 107.341 84.2006C100.576 83.61 93.7009 84.6233 87.3916 87.1366C86.553 87.4713 85.7343 87.8433 84.9329 88.2473C86.7063 86.318 87.7929 83.6646 88.0263 81.1526C88.0529 80.8793 87.8156 80.61 87.5263 80.6646C77.3276 82.5886 67.3516 88.2326 62.9463 98.022C61.7956 100.578 61.0183 103.414 60.9996 106.229C60.9996 106.267 61.013 106.297 61.033 106.321C60.7183 106.677 60.3889 107.019 60.0823 107.385C58.5916 109.167 57.2356 111.05 56.0756 113.065C55.385 114.267 54.6956 115.515 54.1436 116.81C54.145 107.095 54.1476 97.382 54.1463 87.6673C54.2129 87.6806 54.289 87.654 54.2903 87.5726C54.3863 82.7166 54.3756 77.858 54.469 72.9993C54.5636 68.134 54.7156 63.266 54.949 58.4033C55.013 57.0526 55.0849 55.702 55.1649 54.3513C55.2063 53.642 55.249 52.9326 55.293 52.2246C55.321 51.794 55.3729 51.3553 55.3783 50.9206C60.1583 52.2246 65.3889 51.954 70.0903 50.538C74.9503 49.0753 79.3569 46.2633 82.7916 42.5366C84.6769 40.4913 86.2489 38.174 87.4716 35.6766C87.6516 35.3086 87.2889 35.0006 86.9516 35.0113C83.9036 35.1033 80.8209 35.934 78.0876 37.3886C79.9089 35.3953 81.5476 33.2313 82.9476 30.922C84.677 28.0673 86.0623 25.0246 87.0609 21.8393C87.1756 21.474 86.921 21.034 86.4943 21.1113C86.325 21.142 86.161 21.19 85.9943 21.2233C86.9663 17.4193 86.5676 13.314 84.845 9.7753C84.2236 8.49664 82.8396 5.56197 81.0783 7.11798C80.2943 7.81264 79.6423 8.73263 79.0076 9.5593C78.8343 9.7873 78.6716 10.0233 78.5023 10.254C78.485 10.2193 78.4756 10.1846 78.4476 10.15C74.729 5.60731 69.9729 0.476636 63.4916 1.46197C62.1076 1.67264 60.6223 2.13131 59.4796 2.99397C59.3156 2.78197 59.157 2.56463 58.9743 2.36596C57.9116 1.20729 56.5396 0.312633 54.965 0.0592997C53.2823 -0.211367 51.7716 0.472635 50.4609 1.48197C49.8516 1.95397 49.2636 2.4593 48.689 2.9793C48.0023 2.68864 47.2183 2.5273 46.4996 2.35263C45.6929 2.15663 44.8743 2.0033 44.0463 1.93796C42.5556 1.8193 41.0116 2.03396 39.653 2.67663C38.453 3.24463 37.4103 4.0873 36.4823 5.0273C35.6236 5.89796 34.797 6.85397 34.1143 7.87931C33.1516 8.06331 32.2583 8.56864 31.513 9.2953C30.1383 10.6326 29.293 12.4513 28.689 14.246C28.041 16.1726 27.6943 18.1966 27.6316 20.2273C27.413 27.4793 30.589 34.2393 35.6143 39.2886C33.4916 37.786 30.193 36.6806 28.2023 38.9646C26.0463 41.438 29.133 44.3913 30.9436 45.9193C35.209 49.5166 40.8756 51.558 46.4449 51.6473C48.0316 51.6726 49.6183 51.558 51.181 51.2806C51.7676 51.1766 52.345 51.042 52.921 50.8926C52.669 55.542 52.7983 60.2353 52.7983 64.886C52.797 69.9913 52.7969 75.098 52.7956 80.2033C52.7956 84.6033 52.7956 89.002 52.7943 93.4006C51.9223 92.006 50.9716 90.654 50.0143 89.3233C48.7196 87.526 47.3556 85.7806 45.9263 84.0873C45.2196 83.2486 44.4916 82.4286 43.7516 81.6193C43.2156 77.0086 41.4676 72.598 38.8063 68.854C38.805 68.8353 38.805 68.8153 38.8036 68.7966C38.7903 68.6406 38.6903 68.558 38.5743 68.5366C35.421 64.2313 31.0423 60.846 25.8476 59.1633C24.5823 58.754 22.9916 58.154 21.6796 58.6793C20.825 59.0233 20.1036 60.0313 20.597 60.89C19.3103 59.8526 17.785 59.086 16.3063 58.374C14.6476 57.5766 12.9356 56.9006 11.185 56.3366C7.76229 55.234 4.05029 54.4686 0.439623 54.474C0.400957 54.458 0.363625 54.438 0.324959 54.422C0.116959 54.338 -0.0470412 54.6166 0.120959 54.7593C-0.00837452 54.8086 -0.0617078 55.0033 0.102292 55.0526C0.368959 55.1313 0.631626 55.2233 0.898292 55.306C2.06229 56.086 3.32762 56.742 4.53562 57.4353C6.03562 58.2966 7.53429 59.158 9.03429 60.018C10.5343 60.8793 12.0343 61.7406 13.5343 62.6006C14.2983 63.038 15.057 63.4873 15.8276 63.9153C16.1863 64.1153 16.561 64.3326 16.9476 64.522C15.533 64.7913 14.1396 65.154 12.773 65.618C11.117 66.1806 9.38362 66.826 7.89428 67.7513C6.80228 68.43 5.62495 69.674 6.28095 71.05C6.57695 71.67 7.17162 72.074 7.75562 72.3913C8.49296 72.7926 9.26895 73.1273 10.0423 73.45C16.393 76.1033 23.3236 76.466 30.0596 77.406C31.9663 77.6726 33.8676 77.99 35.7463 78.4166C37.4556 78.8046 39.1023 79.334 40.7556 79.8913C41.897 81.0726 43.017 82.2726 44.0943 83.514C45.721 85.3846 47.2703 87.3206 48.745 89.3113C50.1716 91.2353 51.4569 93.2433 52.7943 95.2273C52.7929 100.431 52.7916 105.635 52.793 110.839C52.797 131.265 52.8036 151.689 52.8183 172.113L52.8303 189.309C52.8316 192.122 52.8383 194.937 52.8409 197.75C52.8463 200.609 52.8023 203.482 53.0743 206.327C53.1169 206.777 53.8263 206.766 53.8689 206.318C54.3529 201.266 54.1049 196.102 54.1116 191.029C54.1183 185.923 54.1183 180.818 54.1223 175.713C54.129 165.501 54.1383 155.29 54.141 145.079C54.1436 136.139 54.1423 127.201 54.1436 118.262C54.9223 116.799 55.649 115.311 56.5236 113.899C57.5903 112.181 58.769 110.517 60.033 108.939C60.545 108.299 61.0836 107.685 61.6276 107.075C67.9756 107.241 74.3249 106.963 80.6009 105.939C83.7703 105.422 86.909 104.702 89.981 103.761C91.5556 103.278 93.1156 102.751 94.6463 102.139C95.385 101.846 96.1169 101.535 96.8396 101.21C97.4489 100.937 98.101 100.633 98.4436 100.026C99.4463 98.2486 96.4596 97.9966 95.441 97.8513C93.7383 97.6086 91.937 97.5646 90.217 97.7966C90.8156 97.4233 91.3796 96.9833 91.9516 96.5753C92.7209 96.026 93.489 95.4793 94.2583 94.9313C95.8236 93.8166 97.3929 92.7073 98.9676 91.606C100.542 90.5046 102.105 89.386 103.67 88.2726C104.44 87.7246 105.208 87.178 105.977 86.6313L107.13 85.81C107.534 85.5233 108.033 85.2713 108.34 84.882C108.484 84.698 108.445 84.4953 108.321 84.358Z" fill="#4C4B50"/>
</svg>
