<svg width="46" height="215" viewBox="0 0 46 215" fill="none" xmlns="http://www.w3.org/2000/svg">
<path d="M42.9167 109.023C41.9687 111.757 40.4527 114.226 38.7914 116.579C37.1234 118.942 35.3154 121.206 33.7207 123.622C32.1047 126.07 30.7754 128.677 29.8834 131.478C29.3167 133.258 28.926 135.091 28.686 136.942C28.6167 136.414 28.562 135.883 28.5434 135.347C28.4994 134.145 28.582 132.938 28.7487 131.746C29.078 129.402 29.7447 127.135 30.458 124.885C31.886 120.382 33.3234 115.903 34.3967 111.298C36.546 102.083 37.754 92.6365 37.8527 83.1738C37.8807 80.5405 37.8287 77.9072 37.6994 75.2779C37.6487 74.2299 37.5967 73.1752 37.53 72.1192C38.3087 74.8725 39.0874 77.6258 39.866 80.3792C41.6407 86.6592 43.722 93.0218 44.086 99.5805C44.2633 102.762 43.966 106.002 42.9167 109.023ZM28.2207 136.517C27.454 134.403 26.542 132.351 25.534 130.343C25.626 127.079 26.7127 123.934 27.7514 120.842C28.9994 117.127 30.334 113.443 31.598 109.735C33.6714 103.642 35.5594 97.4565 36.6767 91.1138C36.57 92.7378 36.4447 94.3592 36.2807 95.9779C35.8034 100.687 35.0687 105.365 34.0607 109.99C33.038 114.687 31.7034 119.277 30.2554 123.858C29.4754 126.329 28.7407 128.843 28.3607 131.411C28.118 133.049 27.9914 134.825 28.2207 136.517ZM21.75 123.599C22.134 121.626 22.534 119.695 23.2327 117.793C23.9727 115.778 24.894 113.838 25.8794 111.933C27.902 108.015 30.07 104.185 31.73 100.091C34.9167 92.2325 36.6207 83.7339 36.7794 75.2525C36.8847 77.1112 36.942 78.9725 36.9634 80.8338C36.9394 82.5885 36.8407 84.3405 36.6634 86.0859C36.2647 89.9605 35.5194 93.7939 34.5687 97.5685C32.6527 105.17 29.942 112.543 27.4714 119.973C26.4754 122.967 25.194 126.238 25.0927 129.479C24.0554 127.479 22.9274 125.522 21.75 123.599ZM21.4794 117.467C21.4114 115.533 21.2647 113.601 21.0394 111.677C20.594 107.879 19.854 104.113 18.81 100.435C17.766 96.7525 16.414 93.1632 14.7927 89.6952C13.2034 86.2938 11.314 83.0499 9.51935 79.7525C8.31135 77.5299 7.18069 75.2738 6.20735 72.9525C7.53935 74.8512 8.88869 76.7365 10.1274 78.7005C11.79 81.3339 13.3434 84.0325 14.758 86.8058C17.5607 92.3032 19.846 98.0392 21.61 103.951C22.602 107.274 23.362 110.661 23.946 114.078C23.4887 115.098 23.0554 116.13 22.6727 117.179C22.23 118.39 21.8167 119.671 21.5287 120.97C21.55 119.801 21.5194 118.627 21.4794 117.467ZM20.6087 121.759C20.2167 121.135 19.8194 120.513 19.4194 119.889C18.3714 117.702 17.4447 115.474 16.6474 113.161C15.5074 109.862 14.4874 106.521 13.4367 103.191C11.2647 96.3192 9.13269 89.4312 7.27802 82.4658C6.75802 80.5152 6.26069 78.5592 5.78735 76.5978C5.36069 74.8218 4.99135 73.0232 4.53135 71.2552C6.67002 77.3085 10.3114 82.7739 13.2247 88.4619C16.7194 95.2805 19.0887 102.706 20.2274 110.282C20.5434 112.381 20.766 114.494 20.8927 116.611C21.0074 118.543 20.982 120.471 21.006 122.402C20.8754 122.187 20.742 121.973 20.6087 121.759ZM5.20469 88.4538C4.88602 84.9178 4.97402 81.3618 4.89135 77.8165C4.86335 76.5685 4.81669 75.3005 4.72069 74.0352C4.86469 74.6859 5.01269 75.3339 5.16202 75.9792C5.56869 77.7485 5.99802 79.5125 6.44469 81.2712C7.32602 84.7485 8.27935 88.2098 9.27535 91.6578C11.2634 98.5605 13.3554 105.449 15.5967 112.275C15.99 113.473 16.3967 114.682 16.838 115.882C11.3954 107.414 6.12869 98.6912 5.20469 88.4538ZM12.686 80.2458C16.01 84.3058 19.2367 88.4952 21.438 93.2912C22.022 94.5632 22.53 95.8725 22.9354 97.2152C23.362 98.6245 23.654 100.081 23.986 101.517C24.0074 101.611 24.07 101.682 24.1487 101.729C24.1794 101.993 24.21 102.255 24.242 102.519C24.566 105.17 25.0047 107.801 25.4434 110.433C25.4607 110.543 25.542 110.585 25.6247 110.591C25.226 111.377 24.838 112.171 24.4607 112.97C23.3487 107.259 21.778 101.622 19.702 96.1898C17.4687 90.3498 14.6727 84.7258 11.342 79.4352C10.2354 77.6765 9.07002 75.9272 7.82602 74.2445C9.40202 76.2778 11.0554 78.2552 12.686 80.2458ZM32.17 87.4939C32.9714 85.8699 33.6634 84.1938 34.2487 82.4845C33.946 83.8392 33.6207 85.1885 33.246 86.5232C32.0087 90.9178 30.4167 95.2152 28.5034 99.3605C27.5567 101.411 26.5114 103.411 25.4447 105.401C25.3874 104.699 25.3314 103.999 25.2714 103.301C25.2474 103.027 25.2207 102.754 25.1967 102.482C26.67 97.1125 29.7234 92.4539 32.17 87.4939ZM35.3087 81.4019C35.15 82.9392 34.946 84.4698 34.6834 85.9912C33.9327 90.3258 32.7674 94.5792 31.222 98.6965C29.7287 102.674 27.762 106.402 25.8354 110.178C25.722 108.829 25.6127 107.475 25.502 106.125C27.858 102.354 29.7887 98.2872 31.41 94.1538C33.0354 90.0138 34.33 85.7405 35.3087 81.4019ZM21.7074 37.3352C21.558 37.3219 21.4074 37.3165 21.262 37.2925C21.2367 37.2458 21.206 37.1979 21.1594 37.1565C19.3794 35.5859 19.014 33.0659 18.8914 30.8205C18.738 28.0032 18.7367 25.1432 18.8754 22.3259C19.13 17.1445 20.2594 11.8072 23.6834 7.74452C23.826 7.57519 23.99 7.42586 24.1394 7.2632C23.9447 7.66986 23.7687 8.0832 23.5967 8.4792C23.178 9.4392 22.818 10.4245 22.502 11.4232C21.8767 13.4099 21.4487 15.4565 21.1767 17.5219C20.878 19.7832 20.75 22.0632 20.7594 24.3459C20.7687 26.5445 20.77 28.7512 20.9074 30.9472C21.042 33.0832 21.3194 35.2058 22.0674 37.2125C21.9474 37.2498 21.8287 37.3005 21.7074 37.3352ZM19.9154 37.6432C19.074 37.3725 18.2487 37.1339 17.4567 36.6712C16.4514 36.0819 15.554 35.3192 14.7647 34.4659C13.19 32.7659 11.9634 30.7552 10.7687 28.7819C8.21402 24.5685 5.97002 20.1672 4.13135 15.5952C3.05135 12.9099 2.13535 10.2538 1.93802 7.34718C1.93669 7.32718 1.92469 7.31519 1.91402 7.30319C2.18469 7.07386 2.49935 6.8992 2.83535 6.7632C4.11402 7.8192 5.41935 8.81519 6.58335 10.0072C7.73402 11.1872 8.78869 12.4592 9.75802 13.7912C11.886 16.7152 13.6034 19.8925 15.17 23.1432C16.0927 25.0552 17.0007 26.9805 17.814 28.9405C17.8474 29.0219 17.9047 29.0699 17.97 29.0899C17.9794 29.4499 17.9847 29.8112 17.9954 30.1712C18.074 32.8219 18.4447 35.6552 20.374 37.6139C20.222 37.6339 20.0674 37.6312 19.9154 37.6432ZM15.026 36.4192C14.0594 35.8858 13.1687 35.2125 12.362 34.4605C10.6114 32.8285 9.27535 30.8019 8.11135 28.7245C5.76735 24.5419 3.98069 20.0192 2.79402 15.3725C2.16336 12.9005 1.78335 10.4099 1.40202 7.89519C1.50735 7.73786 1.62202 7.58852 1.75402 7.45786C1.57002 9.93119 2.48602 12.4152 3.33402 14.6952C4.24069 17.1338 5.25269 19.5365 6.36069 21.8925C7.44335 24.1885 8.61669 26.4419 9.90202 28.6312C11.15 30.7539 12.4247 32.9339 14.0714 34.7792C14.898 35.7059 15.8314 36.5392 16.8874 37.1939C16.2554 36.9792 15.6314 36.7538 15.026 36.4192ZM11.13 34.4738C7.78469 31.5312 5.79935 27.3219 4.21802 23.2419C3.31802 20.9232 2.56335 18.5485 1.96869 16.1339C1.67269 14.9405 1.41669 13.7379 1.19669 12.5272C0.995353 11.4112 0.748686 10.2379 0.932686 9.10186C0.996686 8.70586 1.12469 8.36718 1.29535 8.06851C1.41669 10.3232 1.80469 12.5899 2.27935 14.7912C2.80469 17.2125 3.50469 19.6005 4.36735 21.9219C5.23135 24.2525 6.27935 26.5232 7.47135 28.7059C8.62335 30.8179 9.95002 32.8619 11.6687 34.5605C12.2994 35.1845 12.982 35.7525 13.714 36.2512C12.7874 35.7605 11.914 35.1632 11.13 34.4738ZM5.51402 6.49653C6.63002 7.45387 7.79135 8.35653 8.85669 9.3752C9.98335 10.4525 11.0234 11.6379 11.9767 12.8699C13.85 15.2872 15.3714 17.9845 16.4914 20.8299C16.7954 21.6032 17.0687 22.3885 17.31 23.1845C17.434 23.5939 17.546 24.0072 17.6687 24.4165C17.7674 24.7352 17.8274 25.0752 17.934 25.3939C17.926 26.2272 17.9314 27.0605 17.9434 27.8925C16.4594 24.6925 15.0834 21.4592 13.3274 18.3885C11.598 15.3645 9.58602 12.4992 7.12202 10.0219C5.90069 8.79253 4.57269 7.56319 3.07135 6.67386C3.83135 6.42453 4.69535 6.38187 5.51402 6.49653ZM6.66735 4.72452C6.68069 4.74185 6.69135 4.76053 6.71669 4.76853C7.38869 4.99386 8.03802 5.36719 8.56202 5.84319C8.82602 6.08186 9.05669 6.35652 9.25935 6.64985C9.32202 6.74052 9.37002 6.83785 9.42069 6.93385C8.92202 6.66185 8.41535 6.40586 7.88869 6.19386C7.17802 5.90853 6.40735 5.67919 5.62869 5.56052C5.97669 5.28585 6.31669 4.99519 6.66735 4.72452ZM6.94069 4.51252C7.47535 4.13519 8.04469 3.82053 8.63135 3.53653C8.74469 3.8192 8.87269 4.09386 9.00069 4.3752C9.18069 4.76986 9.34069 5.17252 9.48202 5.58318C9.59402 5.91252 9.68469 6.24718 9.77402 6.58318C9.73402 6.52185 9.69935 6.45518 9.65935 6.39652C9.43669 6.06985 9.16735 5.77386 8.87269 5.51252C8.57669 5.24986 8.24869 5.02853 7.89935 4.84319C7.59935 4.68453 7.26335 4.58985 6.92735 4.52319C6.93269 4.51919 6.93669 4.51519 6.94069 4.51252ZM9.20869 3.25919C9.63269 3.08185 10.0674 2.9392 10.5074 2.8152C10.6967 3.45253 10.83 4.09652 10.858 4.76452C10.874 5.13919 10.8554 5.51786 10.806 5.88986C10.7927 5.98986 10.7727 6.08852 10.7554 6.18719C10.622 6.46052 10.5034 6.74319 10.422 7.02719C10.3927 6.91119 10.3634 6.79786 10.3367 6.69119C10.2354 6.26186 10.1114 5.83787 9.96469 5.42187C9.72069 4.73387 9.43269 3.96719 8.97935 3.36852C9.05669 3.33519 9.12869 3.29119 9.20869 3.25919ZM11.6247 2.55653C12.0207 2.4872 12.4207 2.43919 12.822 2.41119C12.958 2.40185 13.0927 2.39919 13.226 2.39519C12.93 2.75119 12.6447 3.1152 12.3807 3.48186C11.958 4.0672 11.5754 4.68051 11.2234 5.30985C11.23 5.12318 11.2314 4.93519 11.2234 4.74853C11.1994 4.06853 11.0594 3.38052 10.802 2.74718C11.074 2.67785 11.346 2.60453 11.6247 2.55653ZM15.4847 1.2632C16.718 0.46453 17.986 0.649863 19.222 1.33786C19.846 1.68586 20.4474 2.08318 21.046 2.47651C21.47 2.75518 21.8927 3.10052 22.3354 3.38185C22.07 3.58452 21.8114 3.79385 21.562 4.00852C19.0447 6.17252 16.754 8.7832 15.1514 11.7059C14.558 10.9645 13.9247 10.2699 13.258 9.64186C12.47 8.90186 11.6114 8.23252 10.6967 7.64719C10.7074 7.63786 10.7207 7.63786 10.7274 7.62719C11.1194 7.11519 11.3647 6.46185 11.6714 5.89652C12.0047 5.28452 12.374 4.69387 12.7767 4.12587C13.526 3.0672 14.3834 1.9752 15.4847 1.2632ZM21.9327 0.976514C21.918 1.00718 21.902 1.03652 21.89 1.06585C21.7754 1.35652 21.7274 1.66186 21.722 1.97253C21.6007 1.89919 21.4754 1.82318 21.358 1.74985C21.1167 1.59918 20.8754 1.45119 20.6314 1.30319C21.0634 1.18853 21.4914 1.05918 21.9327 0.976514ZM22.2834 1.94052C22.29 1.78052 22.3074 1.62452 22.346 1.46852C22.3474 1.46052 22.3514 1.44719 22.3514 1.44585C22.3594 1.42052 22.3674 1.3952 22.3754 1.36987C22.39 1.32453 22.406 1.27918 22.4247 1.23518C22.458 1.15118 22.4967 1.06853 22.542 0.989861C22.558 0.959194 22.5794 0.921855 22.598 0.888522C22.818 0.871189 23.038 0.86186 23.2594 0.860527C23.2514 0.899194 23.2367 0.937858 23.2287 0.975192C23.186 1.19653 23.142 1.41785 23.098 1.64052C23.0554 1.86185 23.01 2.08318 22.966 2.30452C22.9394 2.44318 22.906 2.58851 22.882 2.73518C22.7047 2.59785 22.5114 2.4752 22.3207 2.35253C22.314 2.28453 22.302 2.21785 22.2954 2.14985C22.29 2.10719 22.286 2.06585 22.2847 2.02319C22.2834 2.00719 22.2834 1.99119 22.282 1.97519C22.282 1.94986 22.2807 1.98452 22.2834 1.94052ZM23.402 3.44453C23.934 3.09787 24.4954 2.80453 25.1034 2.6112C26.1994 2.2632 27.4834 2.3272 28.45 2.96187C27.9687 2.9992 27.4834 3.08719 27.0287 3.17386C26.262 3.32186 25.5047 3.52852 24.77 3.79386C23.2647 4.33386 21.978 5.14985 20.7274 6.13785C19.5634 7.05785 18.5287 8.12187 17.6674 9.33253C17.2407 9.93253 16.8674 10.5685 16.542 11.2285C16.3274 11.6632 16.0354 12.1925 15.8794 12.7099C15.7407 12.5112 15.6114 12.3059 15.4647 12.1139C17.2127 9.56853 19.0767 7.15653 21.37 5.0712C21.8887 4.5992 22.43 4.12986 23.006 3.71386C23.1794 3.72719 23.3447 3.60186 23.402 3.44453ZM23.566 2.37918C23.606 2.15652 23.6447 1.93385 23.682 1.71252L23.7994 1.04453C23.8087 0.988528 23.8194 0.931186 23.826 0.873853C23.8674 0.87652 23.9087 0.873852 23.95 0.876518C24.2154 0.900518 24.4754 0.943182 24.734 0.993848C24.6767 1.11518 24.6314 1.2432 24.5994 1.37253C24.566 1.5032 24.5447 1.63785 24.5434 1.77251C24.5434 1.85251 24.5554 1.93119 24.5727 2.00986C24.578 2.03386 24.586 2.05652 24.5914 2.08052C24.2247 2.21918 23.8727 2.39119 23.53 2.58719C23.5434 2.51786 23.5554 2.44852 23.566 2.37918ZM25.0514 1.83385C25.0594 1.70585 25.0634 1.58185 25.0914 1.45651C25.0954 1.44185 25.0994 1.4272 25.102 1.41253C25.1114 1.37253 25.09 1.4472 25.1034 1.40986C25.1114 1.38053 25.1194 1.35118 25.13 1.32185C25.15 1.26318 25.1727 1.20585 25.198 1.14985C25.2047 1.13652 25.21 1.12319 25.2154 1.10986C25.3994 1.15919 25.586 1.20186 25.7674 1.26586C26.058 1.36986 26.342 1.4912 26.618 1.6312C26.67 1.65653 26.7234 1.68986 26.778 1.7232C26.4447 1.7072 26.1087 1.72185 25.7714 1.76985C25.522 1.80585 25.2794 1.86453 25.042 1.93519C25.046 1.90053 25.0487 1.86719 25.0514 1.83385ZM17.2727 15.0245C17.7727 13.7219 18.2594 12.4365 18.9807 11.2339C19.698 10.0365 20.5634 8.94852 21.5634 7.97519C22.5567 7.00852 23.654 6.1472 24.8514 5.44453C24.9007 5.4152 24.9527 5.39251 25.002 5.36451C21.1234 8.56718 19.1967 13.4152 18.4314 18.2845C18.186 17.1619 17.786 16.0685 17.2727 15.0245ZM16.1594 13.1125C16.414 12.6099 16.562 12.0178 16.8007 11.5138C17.114 10.8512 17.4794 10.2139 17.882 9.60052C18.678 8.38718 19.6634 7.27119 20.8047 6.37119C21.9727 5.44985 23.3847 4.77118 24.7767 4.25251C25.526 3.97252 26.298 3.75518 27.0847 3.60585C24.862 4.44985 22.79 5.92052 21.174 7.58986C19.334 9.49119 17.6567 12.0005 17.0634 14.6272C16.7887 14.1059 16.482 13.6045 16.1594 13.1125ZM18.1847 20.3152C18.0794 21.4045 18.022 22.4965 17.9834 23.5925C17.966 23.5365 17.95 23.4779 17.9354 23.4245C17.734 22.7045 17.5087 21.9912 17.2567 21.2885C16.7234 19.7979 16.0794 18.3485 15.314 16.9632C13.7954 14.2152 11.89 11.7219 9.63535 9.54052C8.50069 8.44319 7.29135 7.39252 5.94069 6.57252C6.04335 6.59386 6.14735 6.61118 6.24602 6.63785C8.21269 7.16185 10.062 8.24053 11.6447 9.4992C13.3714 10.8725 14.8434 12.5832 15.942 14.4992C16.9914 16.3299 17.646 18.2899 18.1847 20.3152ZM28.3047 18.4552C27.994 22.9072 27.6247 27.5099 26.0447 31.7232C25.642 32.7979 25.1434 33.8458 24.5487 34.8272C24.0967 35.5738 23.542 36.2578 23.0487 36.9765C22.954 36.9458 22.85 36.9365 22.7314 36.9859C22.63 37.0272 22.526 37.0525 22.4247 37.0899C21.0834 33.2979 21.0714 29.0739 21.1727 25.1019C21.282 20.8085 21.5807 16.4805 22.7914 12.3392C23.1034 11.2739 23.4727 10.2272 23.9127 9.20853C24.3754 8.13653 25.034 7.14452 25.4727 6.06986C25.4847 6.04186 25.4714 6.01785 25.474 5.99118C25.7194 5.78585 25.9527 5.56853 26.214 5.38053C26.9714 4.83119 27.8127 4.31919 28.7194 4.04052C28.678 4.09119 28.65 4.15385 28.6527 4.23252C28.7514 8.97785 28.6367 13.7205 28.3047 18.4552ZM29.4834 3.85918C29.822 3.81385 30.1687 3.81519 30.5034 3.88586C30.4274 8.88186 30.6594 13.8832 30.4394 18.8765C30.238 23.4179 29.5607 28.0539 27.4394 32.1312C26.9047 33.1565 26.2834 34.1365 25.57 35.0485C24.938 35.8578 24.2074 36.5579 23.4887 37.2819C23.482 37.2819 23.474 37.2845 23.4674 37.2845C23.9354 36.7658 24.33 36.1579 24.678 35.5819C25.2047 34.7165 25.6647 33.8032 26.066 32.8739C26.9367 30.8645 27.546 28.7712 27.954 26.6219C28.8474 21.9272 28.9994 17.0619 29.158 12.2965C29.2474 9.58052 29.266 6.86453 29.222 4.14853C29.2207 4.04853 29.174 3.98453 29.1114 3.9472C29.2367 3.9192 29.3567 3.87785 29.4834 3.85918ZM32.1287 5.69119C32.5007 7.02453 32.69 8.43786 32.8714 9.80586C33.6447 15.6365 33.31 21.6392 31.8994 27.3498C31.2127 30.1338 30.1354 33.0499 27.998 35.0565C27.0354 35.9605 25.8754 36.6632 24.61 37.0485C24.478 37.0885 24.3394 37.1192 24.2034 37.1499C25.506 36.0245 26.562 34.4952 27.394 33.0525C28.4207 31.2752 29.1834 29.3472 29.7274 27.3712C31.0527 22.5685 31.0167 17.5205 31.0127 12.5792C31.0114 9.7432 31.0567 6.90319 31.0127 4.06719C31.6354 4.39386 31.9474 5.04053 32.1287 5.69119ZM41.5247 82.5805C40.0274 77.4832 38.546 72.3792 37.014 67.2912C37.0114 67.2739 37.01 67.2565 37.006 67.2405C37.0007 67.1979 36.982 67.1658 36.966 67.1325C36.7287 66.3445 36.5007 65.5552 36.262 64.7699C36.0994 63.2872 35.8687 61.8112 35.5447 60.3552C35.5007 60.1618 35.37 60.0512 35.2207 60.0005C35.1687 59.8165 35.1207 59.6299 35.066 59.4459C34.9634 59.1072 34.4447 59.2805 34.486 59.6112C34.498 59.7099 34.51 59.8085 34.522 59.9085C34.3927 59.9192 34.2714 60.0099 34.302 60.1619C34.466 60.9272 34.6487 61.6885 34.8367 62.4498C35.1247 64.7512 35.3914 67.0512 35.558 69.3618C35.5567 72.3778 35.2234 75.3925 34.5594 78.3378C33.9074 81.2272 32.9034 84.0232 31.63 86.6952C30.4034 89.2698 28.9847 91.7472 27.7074 94.2952C26.6394 96.4245 25.6607 98.6045 25.0514 100.895C24.906 99.3445 24.7567 97.7938 24.6234 96.2418C24.2207 91.5352 23.7967 86.8338 23.478 82.1205C22.8434 72.7325 22.438 63.3285 22.262 53.9219C22.2127 51.2699 22.1834 48.6165 22.174 45.9632C22.17 44.8512 22.1834 43.7365 22.1927 42.6232C22.3274 42.4658 22.3367 42.2192 22.3554 42.0219C22.3754 41.7992 22.39 41.5792 22.4207 41.3579C22.4794 40.9392 22.5634 40.5192 22.678 40.1125C22.7954 39.6965 22.9487 39.2952 23.1207 38.8992C23.21 38.6952 23.2954 38.4925 23.3874 38.2912C23.4207 38.2179 23.4567 38.1419 23.4927 38.0672C23.6354 38.0512 23.778 38.0432 23.9247 38.0179C25.1714 37.8005 26.354 37.2872 27.3994 36.5805C29.658 35.0565 31.066 32.5765 31.9487 30.0552C32.9487 27.2059 33.486 24.1592 33.79 21.1605C34.1167 17.9352 34.1114 14.6805 33.8007 11.4538C33.65 9.88985 33.422 8.33386 33.1167 6.79386C32.874 5.56719 32.6247 4.15785 31.4474 3.47385C30.89 3.15252 30.2914 3.04319 29.6807 3.07519C29.666 3.02719 29.6407 2.97919 29.5954 2.93519C29.0847 2.41653 28.4687 2.0752 27.8034 1.8872C27.874 1.80053 27.9007 1.6832 27.8447 1.5512C27.714 1.2392 27.3727 1.10452 27.086 0.951185C26.7794 0.787185 26.4607 0.64586 26.134 0.527194C25.4647 0.284527 24.7607 0.127183 24.0514 0.0658494C22.754 -0.0461506 21.11 0.0765198 20.0274 0.873853C20.0074 0.88852 20.006 0.91253 19.9927 0.929863C19.778 0.80853 19.566 0.683191 19.3474 0.569857C18.0594 -0.0888093 16.6927 -0.250143 15.3954 0.477857C14.826 0.797857 14.322 1.22453 13.858 1.69386C13.522 1.54319 13.1447 1.58185 12.774 1.60585C12.326 1.63385 11.8794 1.68853 11.4367 1.76853C10.5434 1.93253 9.66335 2.1992 8.82869 2.55653C8.01669 2.90453 7.23535 3.34186 6.51935 3.85786C5.91802 4.29119 5.27135 4.83252 4.86202 5.48052C3.54469 5.41386 2.25002 5.72587 1.22869 6.7032C-0.564647 8.42187 0.0166868 11.0659 0.431353 13.2285C0.936687 15.8725 1.62335 18.4832 2.48069 21.0352C4.02202 25.6339 6.02469 30.4952 9.38602 34.0832C12.0687 36.9472 16.1007 39.0112 20.0514 38.6405C20.5554 39.0032 20.8687 39.6632 20.99 40.2405C21.0487 40.5232 21.0847 40.8085 21.118 41.0965C21.102 42.4699 21.0967 43.8432 21.0887 45.2139C21.0767 47.5405 21.0807 49.8658 21.1007 52.1912C21.1407 56.8978 21.25 61.6018 21.4287 66.3045C21.7874 75.7418 22.4394 85.1645 23.346 94.5658C23.3794 94.8965 23.418 95.2258 23.4514 95.5565C23.2647 95.0378 23.0647 94.5232 22.8554 94.0178C21.8687 91.6378 20.598 89.3845 19.1834 87.2339C16.1887 82.6845 12.5127 78.6565 9.07535 74.4472C8.09669 73.2485 7.12869 72.0405 6.20469 70.7992C5.76202 70.2045 5.32469 69.6059 4.89802 68.9979C4.79802 68.8565 4.70202 68.7125 4.60602 68.5658C4.56869 68.4445 4.52735 68.3245 4.49135 68.2032C4.44469 68.0432 4.31802 67.9672 4.17669 67.9498C3.97935 67.6832 3.77002 67.4285 3.51802 67.2138C3.46735 67.1698 3.39402 67.1819 3.34335 67.2192C3.19135 67.1419 2.95002 67.2512 2.99535 67.4552C3.67269 70.6032 4.03669 73.7432 4.11935 76.9619C4.20335 80.1259 4.10869 83.2925 4.24469 86.4552C4.37935 89.5338 4.79135 92.5739 5.60469 95.5485C6.39002 98.4299 7.47535 101.217 8.75135 103.914C14.0154 115.042 22.3954 124.502 26.7607 136.081C27.378 137.719 27.89 139.399 28.3127 141.101C28.2354 142.642 28.202 144.187 28.1607 145.729C28.0927 148.209 28.0314 150.687 27.982 153.167C27.8807 158.13 27.8047 163.095 27.7394 168.058C27.6114 177.99 27.4794 187.922 27.3647 197.854C27.3327 200.614 27.3034 203.374 27.29 206.134C27.2767 208.931 27.254 211.755 27.478 214.543C27.51 214.954 28.154 214.937 28.1967 214.535C28.4607 212.078 28.5127 209.591 28.5847 207.122C28.658 204.642 28.6887 202.161 28.726 199.679C28.802 194.715 28.8794 189.75 28.9474 184.785C29.0767 175.394 29.2314 166.003 29.3047 156.613C29.414 156.589 29.5127 156.522 29.5594 156.391C30.1767 154.695 30.4887 152.89 30.6034 151.074C30.786 151.067 30.9647 150.935 30.9074 150.721C30.8154 150.383 30.7407 150.038 30.658 149.695C30.666 148.938 30.6434 148.181 30.5994 147.434C30.4674 145.247 30.1074 143.079 29.5834 140.953C29.5927 138.334 29.898 135.719 30.5954 133.174C31.3767 130.329 32.5847 127.621 34.1567 125.123C35.6834 122.698 37.462 120.445 39.142 118.125C40.8154 115.813 42.4127 113.407 43.5167 110.765C44.7234 107.877 45.2567 104.746 45.27 101.626C45.298 95.0939 43.3474 88.7872 41.5247 82.5805Z" fill="#4C4B50"/>
</svg>
